<svg width="523" height="602" viewBox="0 0 523 602" fill="none" xmlns="http://www.w3.org/2000/svg">
<g clip-path="url(#clip0_235_7810)">
<rect y="89.3369" width="421" height="525" transform="rotate(-12.2514 0 89.3369)" fill="#DB4C2F"/>
<rect x="12.7031" y="86.5781" width="12" height="525" transform="rotate(-12.2514 12.7031 86.5781)" fill="#FFD777"/>
<rect x="384.051" y="5.94238" width="12" height="525" transform="rotate(-12.2514 384.051 5.94238)" fill="#FFD777"/>
<path d="M266.313 187.977C266.313 187.977 270.935 176.693 277.292 175.617C283.278 174.604 291.223 182.568 291.223 182.568L299.498 220.676M266.313 187.977C266.313 187.977 256.626 179.818 250.01 181.541C243.77 183.166 239.031 193.902 239.031 193.902M266.313 187.977L274.588 226.085M239.031 193.902C239.031 193.902 230.239 184.588 223.655 186.017C217.071 187.447 212.935 199.568 212.935 199.568M239.031 193.902C239.031 193.902 243.165 212.942 245.494 223.667M212.935 199.568C212.935 199.568 203.374 190.698 196.373 191.941C188.993 193.252 183.28 206.008 183.28 206.008C183.28 206.008 187.063 223.427 189.486 234.589M212.935 199.568C212.935 199.568 216.717 216.988 219.141 228.149M189.486 234.589C197.081 224.203 206.76 228.337 219.141 228.149M189.486 234.589C184.355 245.679 188.272 274.757 188.272 274.757C188.272 274.757 189.159 282.221 190.858 286.666C198.47 306.59 239.615 310.995 239.615 310.995M245.494 223.667C235.303 225.88 237.367 226.679 219.141 228.149M245.494 223.667C246.786 229.615 248.08 235.576 248.08 235.576M239.615 310.995C239.615 310.995 253.422 305.736 257.97 298.281C261.288 292.84 261.984 282.445 261.984 282.445M239.615 310.995C239.615 310.995 244.658 334.221 247.89 349.103M274.588 226.085C274.588 226.085 283.44 231.896 289.187 230.397C294.537 229.003 299.498 220.676 299.498 220.676M274.588 226.085C274.588 226.085 270.209 234.518 261.905 236.322C255.975 237.609 248.08 235.576 248.08 235.576M299.498 220.676L310.1 269.502C310.1 269.502 306.933 279.218 303.455 284.662C299.412 290.991 290.362 298.729 290.362 298.729C290.362 298.729 295.563 322.681 298.896 338.028M248.08 235.576L220.861 258.952M220.861 258.952C220.861 258.952 223.339 264.642 222.671 267.288M220.861 258.952C220.861 258.952 217.453 254.696 212.451 254.543M247.89 349.103C252.333 369.566 259.268 401.502 259.268 401.502L211.821 411.805L222.423 460.631L271.056 450.07L281.659 498.896L331.479 488.078L320.876 439.252L369.51 428.691L358.907 379.866L310.274 390.426C310.274 390.426 303.339 358.491 298.896 338.028M247.89 349.103C190.513 349.982 144.531 311.985 134.36 255.288C123.544 195.002 160.739 138.001 220.215 124.413C280.355 110.673 339.074 147.527 354.99 207.379C369.278 261.111 347.593 311.618 298.896 338.028" stroke="#FFD777" stroke-width="8"/>
</g>
<defs>
<clipPath id="clip0_235_7810">
<rect width="523" height="602" fill="white"/>
</clipPath>
</defs>
</svg>
